<svg xmlns="http://www.w3.org/2000/svg" width="59.013" height="64.219" viewBox="0 0 59.013 64.219">
  <g id="Component_93_1" data-name="Component 93 – 1" transform="translate(1 1.023)">
    <path id="Path_740" data-name="Path 740" d="M77.694,15.72,50.483.171a1.293,1.293,0,0,0-1.285,0L21.987,15.72a1.3,1.3,0,0,0-.653,1.125V45.352a1.3,1.3,0,0,0,.653,1.125L49.2,62.025a1.293,1.293,0,0,0,1.285,0L77.694,46.476a1.3,1.3,0,0,0,.653-1.125V16.845A1.3,1.3,0,0,0,77.694,15.72Z" transform="translate(-21.334 0)" fill="rgba(10,25,47,0.85)" stroke="#64ffda" stroke-width="2"/>
    <text id="AU" transform="translate(13.112 40)" fill="#64ffda" font-size="22" font-family="Lato-Bold, Lato" font-weight="700"><tspan x="0" y="0">AU</tspan></text>
  </g>
</svg>
